<svg version="1.1" id="Camada_1" xmlns="http://www.w3.org/2000/svg" x="0" y="0" viewBox="0 0 22 22" xml:space="preserve"><style>.st0{fill:#669dfc}</style><path class="st0" d="M13.71 6.44c-.81-.51-1.75-.78-2.71-.78s-1.9.27-2.71.78c-1.5.94-2.4 2.56-2.4 4.34 0 1.77.9 3.39 2.4 4.34.81.51 1.75.77 2.71.77s1.9-.27 2.71-.78c1.5-.94 2.4-2.56 2.4-4.34 0-1.77-.9-3.39-2.4-4.33zm-5.63 7.27a4.096 4.096 0 01-1.19-2.45h1.19v2.45zm0-3.42H6.89c.11-.94.53-1.8 1.19-2.45v2.45zm2.43 4.59c-.51-.06-1.01-.21-1.46-.46v-3.17h1.46v3.63zm0-4.59H9.05V7.12c.46-.24.95-.39 1.46-.45v3.62zm2.44 4.14c-.45.24-.95.4-1.46.46v-3.62h1.46v3.16zm0-4.14h-1.46V6.67c.51.06 1.01.21 1.46.45v3.17zm.97 3.42v-2.45h1.19c-.11.94-.53 1.8-1.19 2.45zm0-3.42V7.84c.66.66 1.08 1.51 1.19 2.45h-1.19zM10.51 4.2h.97v.97h-.97zM10.51 16.37h.97v.97h-.97zM16.6 10.29h.97v.97h-.97zM4.43 10.29h.97v.97h-.97z"/><path class="st0" d="M21.1 7.63h-1.45a9.212 9.212 0 00-4.38-5.01V.9c0-.5-.4-.9-.9-.9H7.63c-.5 0-.9.4-.9.9v1.72a9.246 9.246 0 00-4.38 5.01H.9c-.5 0-.9.4-.9.9v4.49c0 .5.4.9.9.9h1.45a9.196 9.196 0 002.66 3.85l-.52.66a1.802 1.802 0 00-1.57 1.78c0 .99.81 1.8 1.8 1.8h12.57c.48 0 .93-.19 1.27-.53.34-.34.53-.79.53-1.27 0-.91-.69-1.67-1.57-1.78l-.52-.66a9.196 9.196 0 002.66-3.85h1.45c.5 0 .9-.4.9-.9V8.53a.918.918 0 00-.91-.9zM2.07 13.02H.9V8.53h1.18a9.342 9.342 0 00-.01 4.49zM7.63.9h6.73v1.31A9.084 9.084 0 0011 1.57c-1.17 0-2.3.21-3.37.64V.9zm9.91 18.44a.894.894 0 01-.25 1.75H4.71c-.5 0-.9-.4-.9-.9 0-.24.09-.46.26-.63.11-.11.24-.18.38-.23.24.42.76 1.09 1.6 1.09v-.9c-.38 0-.67-.37-.81-.62l.47-.59a9.089 9.089 0 005.28 1.66c1.91 0 3.73-.57 5.28-1.66l.47.59c-.15.25-.43.62-.81.62v.9c.85.01 1.37-.66 1.61-1.08zm1.36-6.01a8.19 8.19 0 01-2.82 4.01 8.21 8.21 0 01-5.09 1.74c-1.86 0-3.62-.6-5.09-1.74a8.32 8.32 0 01-2.82-4.01c-.27-.82-.4-1.68-.4-2.55 0-.88.14-1.74.41-2.56A8.38 8.38 0 017.38 3.3c1.13-.55 2.35-.83 3.62-.83s2.49.28 3.62.83a8.33 8.33 0 014.28 4.92c.27.82.4 1.68.4 2.55.01.88-.13 1.74-.4 2.56zm2.2-.31h-1.18c.18-.73.28-1.48.28-2.24 0-.76-.09-1.52-.28-2.24h1.18v4.48z"/></svg>