<svg width="0" height="0" version="1.1" xmlns="http://www.w3.org/2000/svg" xmlns:xlink="http://www.w3.org/1999/xlink">
    <defs>
        <symbol id="icon-categorias-inovacao-gestao" viewBox="0 10 45 25">
            <path d="M18.352 31.862h8.296a.992.992 0 1 0 0-1.983h-8.296a.992.992 0 0 0 0 1.983z M23.492 30.87V17.39a.992.992 0 0 0-1.984 0V30.87a.992.992 0 0 0 1.984 0z M27.685 17.434h-1.037a5.14 5.14 0 0 0-5.14 5.14v2.074c0 .548.444.992.992.992h1.037a5.14 5.14 0 0 0 5.14-5.14v-2.074a.992.992 0 0 0-.992-.992zm-.991 3.066a3.156 3.156 0 0 1-3.157 3.156h-.045v-1.082a3.156 3.156 0 0 1 3.156-3.156h.046V20.5z M17.36 29.445v4.536c0 .548.444.992.992.992h8.296a.992.992 0 0 0 .992-.992v-4.536a10.31 10.31 0 0 0 5.185-8.945c0-5.702-4.623-10.325-10.325-10.325-5.702 0-10.325 4.623-10.325 10.325a10.31 10.31 0 0 0 5.185 8.945zm1.984 3.545v-4.138a.992.992 0 0 0-.55-.888 8.332 8.332 0 0 1-4.636-7.464 8.342 8.342 0 1 1 16.684 0 8.332 8.332 0 0 1-4.636 7.464.992.992 0 0 0-.55.888v4.138h-6.312z"/>
        </symbol>
        <symbol id="icon-categorias-marketing-digital" viewBox="0 11 45 25">
            <path d="M19.24 31.14a9.325 9.325 0 0 1-6.211-8.79 9.32 9.32 0 0 1 9.321-9.321 9.325 9.325 0 0 1 8.792 6.217 1.029 1.029 0 1 0 1.94-.685 11.383 11.383 0 0 0-10.732-7.59c-6.285 0-11.379 5.094-11.379 11.379 0 4.86 3.074 9.134 7.582 10.73a1.029 1.029 0 1 0 .687-1.94z M19.52 26.13a4.722 4.722 0 1 1 6.606-6.613 1.029 1.029 0 0 0 1.647-1.235 6.78 6.78 0 1 0-9.487 9.494 1.029 1.029 0 1 0 1.235-1.646z M34.77 25.186a1.029 1.029 0 0 0-.635-1.752l-10.542-.959a1.029 1.029 0 0 0-1.118 1.118l.959 10.542a1.029 1.029 0 0 0 1.752.634l2.147-2.147 3.106 3.106a1.029 1.029 0 0 0 1.455-1.456l-3.833-3.833a1.029 1.029 0 0 0-1.455 0l-1.322 1.322-.647-7.124 7.124.647-1.322 1.322a1.029 1.029 0 0 0 0 1.455l3.833 3.833a1.029 1.029 0 1 0 1.456-1.455l-3.106-3.106 2.147-2.147z"/>
        </symbol>
        <symbol id="icon-categorias-data-science" viewBox="0 0 22 21">
            <path d="m3.84 0.523c-0.96-0.038-1.9 0.205-2.53 0.887-0.631 0.68-0.805 1.63-0.701 2.59 0.105 0.97 0.471 2 1.03 3.12 0.52 1.02 1.23
 2.1 2.06 3.18-0.84 1.1-1.54 2.2-2.06 3.2-0.56 1.1-0.928 2.2-1.03 3.1-0.107 1 0.065 2 0.7 2.6 0.63 0.7 1.56 1 2.53 0.9 0.97 0 2.02-0.3 3.17-0.8 1.2-0.5 2.49-1.3 3.79-2.2 1.3 0.9 2.6 1.7 3.8 2.2s2.2 0.8 3.2 0.8c1 0.1 1.9-0.2 2.5-0.9 0.7-0.6 0.8-1.6 0.7-2.6-0.1-0.9-0.4-2-1-3.1-0.5-1-1.2-2.1-2.1-3.2 0.9-1.08 1.6-2.16 2.1-3.18 0.6-1.12 0.9-2.15 1-3.12 0.1-0.96 0-1.91-0.7-2.59-0.6-0.682-1.5-0.925-2.5-0.887-1 0.039-2 0.332-3.2 0.817-1.2 0.51-2.5 1.26-3.8 2.18-1.3-0.92-2.59-1.67-3.79-2.18-1.15-0.485-2.21-0.778-3.17-0.817zm-0.07 1.7c0.66 0.03 1.56 0.25 2.57 0.69 0.93 0.39 1.96 0.97 3.04 1.69-0.73 0.57-1.45 1.17-2.16 1.84-0.88 0.83-1.67 1.68-2.4 2.52-0.67-0.91-1.25-1.8-1.66-2.61-0.5-0.99-0.79-1.87-0.86-2.53s0.05-1.04 0.26-1.26c0.2-0.21 0.56-0.36 1.21-0.34zm14.1 0c0.6-0.02 1 0.13 1.2 0.34 0.2 0.22 0.3 0.6 0.2 1.26 0 0.66-0.3 1.54-0.8 2.53-0.4 0.81-1 1.7-1.7 2.61-0.7-0.84-1.5-1.69-2.4-2.52-0.7-0.67-1.4-1.27-2.1-1.84 1-0.72 2.1-1.3 3-1.69 1-0.44 1.9-0.66 2.6-0.69zm-7.1 3.42c0.8 0.62 1.7 1.28 2.5 2.04 0.9 0.87 1.7 1.76 2.4 2.62-0.7 0.9-1.5 1.8-2.4 2.7-0.8 0.7-1.7 1.4-2.5 2-0.8-0.6-1.61-1.3-2.42-2h-0.01c-0.92-0.9-1.73-1.8-2.47-2.7 0.74-0.86 1.55-1.75 2.48-2.62 0.81-0.76 1.62-1.42 2.42-2.04zm-1.47 2.86a0.46 0.46 0 0 0 -0.46 0.46v1.14h3.93v-0.1-1.09 0.02a0.46 0.46 0 0 0 -0.5 -0.43h-2.97zm-0.41 2v0.1h-0.05 0.05v1a0.46 0.46 0 0 0 0.46 0.5h3.02a0.46 0.46 0 0 0 0.4 -0.5v-1.1h-3.88zm-4.1 1.2c0.73 0.8 1.52 1.7 2.4 2.5a0.85 0.85 0 0 0 0.09 0.1c0.68 0.6 1.38 1.2 2.07 1.7-1.07 0.8-2.11 1.3-3.04 1.7-1.01 0.5-1.91 0.7-2.57 0.7s-1.01-0.1-1.22-0.3c-0.2-0.2-0.32-0.6-0.25-1.3 0.07-0.6 0.36-1.5 0.86-2.5 0.41-0.8 0.99-1.7 1.66-2.6zm12 0c0.7 0.9 1.3 1.8 1.7 2.6 0.5 1 0.8 1.9 0.8 2.5 0.1 0.7 0 1.1-0.2 1.3s-0.6 0.3-1.2 0.3c-0.7 0-1.6-0.2-2.6-0.7-0.9-0.4-2-0.9-3-1.7 0.7-0.5 1.3-1.1 2-1.7a0.85 0.85 0 0 0 0.1 -0.1c0.9-0.8 1.7-1.7 2.4-2.5z"/>
        </symbol>
        <symbol id="icon-categorias-dados" viewBox="0 0 22 21">
            <path d="m3.84 0.523c-0.96-0.038-1.9 0.205-2.53 0.887-0.631 0.68-0.805 1.63-0.701 2.59 0.105 0.97 0.471 2 1.03 3.12 0.52 1.02 1.23
 2.1 2.06 3.18-0.84 1.1-1.54 2.2-2.06 3.2-0.56 1.1-0.928 2.2-1.03 3.1-0.107 1 0.065 2 0.7 2.6 0.63 0.7 1.56 1 2.53 0.9 0.97 0 2.02-0.3 3.17-0.8 1.2-0.5 2.49-1.3 3.79-2.2 1.3 0.9 2.6 1.7 3.8 2.2s2.2 0.8 3.2 0.8c1 0.1 1.9-0.2 2.5-0.9 0.7-0.6 0.8-1.6 0.7-2.6-0.1-0.9-0.4-2-1-3.1-0.5-1-1.2-2.1-2.1-3.2 0.9-1.08 1.6-2.16 2.1-3.18 0.6-1.12 0.9-2.15 1-3.12 0.1-0.96 0-1.91-0.7-2.59-0.6-0.682-1.5-0.925-2.5-0.887-1 0.039-2 0.332-3.2 0.817-1.2 0.51-2.5 1.26-3.8 2.18-1.3-0.92-2.59-1.67-3.79-2.18-1.15-0.485-2.21-0.778-3.17-0.817zm-0.07 1.7c0.66 0.03 1.56 0.25 2.57 0.69 0.93 0.39 1.96 0.97 3.04 1.69-0.73 0.57-1.45 1.17-2.16 1.84-0.88 0.83-1.67 1.68-2.4 2.52-0.67-0.91-1.25-1.8-1.66-2.61-0.5-0.99-0.79-1.87-0.86-2.53s0.05-1.04 0.26-1.26c0.2-0.21 0.56-0.36 1.21-0.34zm14.1 0c0.6-0.02 1 0.13 1.2 0.34 0.2 0.22 0.3 0.6 0.2 1.26 0 0.66-0.3 1.54-0.8 2.53-0.4 0.81-1 1.7-1.7 2.61-0.7-0.84-1.5-1.69-2.4-2.52-0.7-0.67-1.4-1.27-2.1-1.84 1-0.72 2.1-1.3 3-1.69 1-0.44 1.9-0.66 2.6-0.69zm-7.1 3.42c0.8 0.62 1.7 1.28 2.5 2.04 0.9 0.87 1.7 1.76 2.4 2.62-0.7 0.9-1.5 1.8-2.4 2.7-0.8 0.7-1.7 1.4-2.5 2-0.8-0.6-1.61-1.3-2.42-2h-0.01c-0.92-0.9-1.73-1.8-2.47-2.7 0.74-0.86 1.55-1.75 2.48-2.62 0.81-0.76 1.62-1.42 2.42-2.04zm-1.47 2.86a0.46 0.46 0 0 0 -0.46 0.46v1.14h3.93v-0.1-1.09 0.02a0.46 0.46 0 0 0 -0.5 -0.43h-2.97zm-0.41 2v0.1h-0.05 0.05v1a0.46 0.46 0 0 0 0.46 0.5h3.02a0.46 0.46 0 0 0 0.4 -0.5v-1.1h-3.88zm-4.1 1.2c0.73 0.8 1.52 1.7 2.4 2.5a0.85 0.85 0 0 0 0.09 0.1c0.68 0.6 1.38 1.2 2.07 1.7-1.07 0.8-2.11 1.3-3.04 1.7-1.01 0.5-1.91 0.7-2.57 0.7s-1.01-0.1-1.22-0.3c-0.2-0.2-0.32-0.6-0.25-1.3 0.07-0.6 0.36-1.5 0.86-2.5 0.41-0.8 0.99-1.7 1.66-2.6zm12 0c0.7 0.9 1.3 1.8 1.7 2.6 0.5 1 0.8 1.9 0.8 2.5 0.1 0.7 0 1.1-0.2 1.3s-0.6 0.3-1.2 0.3c-0.7 0-1.6-0.2-2.6-0.7-0.9-0.4-2-0.9-3-1.7 0.7-0.5 1.3-1.1 2-1.7a0.85 0.85 0 0 0 0.1 -0.1c0.9-0.8 1.7-1.7 2.4-2.5z"/>
        </symbol>
        <symbol id="icon-categorias-design-ux" viewBox="0 0 24 19">
            <path d="M23.783 8.582c-.047-.086-1.146-2.111-3.123-4.155C17.984 1.662 14.97.2 11.943.2S5.902 1.662 3.226 4.427C1.248 6.47.15 8.496.103 8.582a.865.865 0 0 0-.087.572.864.864 0 0 0 .087.573c.047.085 1.145 2.11 3.123 4.154 2.676 2.765 5.69 4.227 8.717 4.227 3.026 0 6.04-1.462 8.717-4.227 1.976-2.044 3.076-4.07 3.122-4.154a.87.87 0 0 0 .087-.573.865.865 0 0 0-.087-.574v.002zm-11.84 7.787c-5.552 0-9.39-5.918-10.166-7.216.773-1.3 4.598-7.215 10.165-7.215 5.552 0 9.39 5.916 10.164 7.215-.775 1.3-4.612 7.216-10.164 7.216zm1.36-7.288c0-.416.338-.868.757-.868h1.842c-.362-1.737-1.999-3.183-3.966-3.183-2.232 0-4.041 1.85-4.041 4.082 0 2.232 1.81 4.094 4.04 4.094 1.981 0 3.628-1.517 3.973-3.255H14.06c-.418 0-.755-.452-.755-.869l-.001-.001z"/>
        </symbol>
        <symbol id="icon-categorias-front-end" viewBox="0 0 21 21">
            <path d="M9.843 1.992a.996.996 0 0 0 0-1.992h-8.67C.882 0 .563.066.38.263.184.445 0 .648 0 .938v8.67a.996.996 0 0 0 1.992 0V1.993h7.85zm9.606 7.847a.995.995 0 0 0-.996.997v7.851h-7.617a.996.996 0 1 0 0 1.992h8.67c.29 0 .492-.183.675-.38.197-.182.263-.5.263-.79v-8.673a.996.996 0 0 0-.997-.997h.002zM9.285 14.44a.88.88 0 0 0 1.757 0v-2.446l2.28 1.282a.98.98 0 0 0 .468.118.903.903 0 0 0 .777-.44.876.876 0 0 0-.314-1.2l-2.175-1.26 2.183-1.26a.878.878 0 0 0 .321-1.201c-.241-.42-.838-.564-1.258-.321l-2.28 1.282V6.473a.88.88 0 0 0-1.758 0V8.95l-2.08-1.236a.847.847 0 0 0-1.173.321.886.886 0 0 0 .338 1.201l2.187 1.26-2.176 1.259a.88.88 0 0 0 .443 1.639c.148 0 .24-.038.38-.119l2.08-1.235v2.4z"/>
        </symbol>
        <symbol id="icon-categorias-infraestrutura" viewBox="0 0 23 23">
            <path d="M11.19 18.67c-4.108 0-7.447-3.343-7.447-7.45 0-4.108 3.34-7.45 7.447-7.45 4.108 0 7.45 3.343 7.45 7.45 0 4.108-3.342 7.45-7.448 7.45h-.002zm10.934-9.018l-1.847-.343a9.231 9.231 0 0 0-1.308-3.178l1.093-1.573a.298.298 0 0 0 .004-.422l-1.793-1.795a.298.298 0 0 0-.42 0l-1.574 1.085a9.26 9.26 0 0 0-3.177-1.32L12.759.263C12.759.1 12.625 0 12.46 0H9.92c-.164 0-.298.1-.298.264L9.28 2.122a9.24 9.24 0 0 0-3.179 1.313L4.528 2.346a.298.298 0 0 0-.422-.003L2.311 4.138a.298.298 0 0 0 0 .42l1.086 1.573a9.258 9.258 0 0 0-1.32 3.178L.25 9.653c-.164 0-.25.134-.25.298v2.539c0 .164.086.298.25.298l1.85.343a9.237 9.237 0 0 0 1.31 3.178l-1.092 1.573a.298.298 0 0 0-.005.422l1.794 1.797a.298.298 0 0 0 .421 0l1.573-1.087a9.243 9.243 0 0 0 3.178 1.32l.343 1.805c0 .164.134.227.298.227h2.54c.164 0 .298-.063.298-.227l.343-1.84a9.227 9.227 0 0 0 3.178-1.303l1.573 1.096a.298.298 0 0 0 .422.003l1.795-1.793a.298.298 0 0 0 0-.421l-1.084-1.574a9.258 9.258 0 0 0 1.321-3.177l1.82-.344c.164 0 .24-.135.24-.299V9.95c0-.164-.076-.299-.24-.299l-.002.001zM11.19 7.842a3.382 3.382 0 0 0-3.377 3.378 3.382 3.382 0 0 0 3.377 3.377 3.38 3.38 0 0 0 3.377-3.377 3.38 3.38 0 0 0-3.377-3.377zm0 4.891a1.513 1.513 0 1 1 0-3.026 1.513 1.513 0 0 1 0 3.026z"/>
        </symbol>
        <symbol id="icon-categorias-devops" viewBox="0 0 23 23">
            <path d="M11.19 18.67c-4.108 0-7.447-3.343-7.447-7.45 0-4.108 3.34-7.45 7.447-7.45 4.108 0 7.45 3.343 7.45 7.45 0 4.108-3.342 7.45-7.448 7.45h-.002zm10.934-9.018l-1.847-.343a9.231 9.231 0 0 0-1.308-3.178l1.093-1.573a.298.298 0 0 0 .004-.422l-1.793-1.795a.298.298 0 0 0-.42 0l-1.574 1.085a9.26 9.26 0 0 0-3.177-1.32L12.759.263C12.759.1 12.625 0 12.46 0H9.92c-.164 0-.298.1-.298.264L9.28 2.122a9.24 9.24 0 0 0-3.179 1.313L4.528 2.346a.298.298 0 0 0-.422-.003L2.311 4.138a.298.298 0 0 0 0 .42l1.086 1.573a9.258 9.258 0 0 0-1.32 3.178L.25 9.653c-.164 0-.25.134-.25.298v2.539c0 .164.086.298.25.298l1.85.343a9.237 9.237 0 0 0 1.31 3.178l-1.092 1.573a.298.298 0 0 0-.005.422l1.794 1.797a.298.298 0 0 0 .421 0l1.573-1.087a9.243 9.243 0 0 0 3.178 1.32l.343 1.805c0 .164.134.227.298.227h2.54c.164 0 .298-.063.298-.227l.343-1.84a9.227 9.227 0 0 0 3.178-1.303l1.573 1.096a.298.298 0 0 0 .422.003l1.795-1.793a.298.298 0 0 0 0-.421l-1.084-1.574a9.258 9.258 0 0 0 1.321-3.177l1.82-.344c.164 0 .24-.135.24-.299V9.95c0-.164-.076-.299-.24-.299l-.002.001zM11.19 7.842a3.382 3.382 0 0 0-3.377 3.378 3.382 3.382 0 0 0 3.377 3.377 3.38 3.38 0 0 0 3.377-3.377 3.38 3.38 0 0 0-3.377-3.377zm0 4.891a1.513 1.513 0 1 1 0-3.026 1.513 1.513 0 0 1 0 3.026z"/>
        </symbol>
        <symbol id="icon-categorias-mobile" viewBox="0 0 24 22">
            <g transform="translate(4.5 0)">
                <path d="M12.451 20.014H2.548c-.272 0-.468-.206-.468-.514v-3.728h10.84V19.5c0 .308-.197.514-.469.514zM2.548 1.99h9.903c.272 0 .468.196.468.443V14.2H2.08V2.433c0-.247.197-.443.469-.443zM15 2.462C15 1.102 13.848 0 12.427 0H2.573C1.153 0 0 1.102 0 2.462v17.076C0 20.898 1.152 22 2.573 22h9.854a2.64 2.64 0 0 0 1.82-.721A2.41 2.41 0 0 0 15 19.538V2.462zm-7.338 14.45h-.124a1.18 1.18 0 0 0-1.175 1.185 1.18 1.18 0 0 0 1.175 1.183h.124c.65 0 1.175-.53 1.175-1.183a1.18 1.18 0 0 0-1.175-1.184z"/>
            </g>
        </symbol>
        <symbol id="icon-categorias-programacao" viewBox="0 0 17 20">
            <path d="M9.166 9.524L5.703 6.062a1.039 1.039 0 1 0-1.47 1.47l2.823 2.822-2.822 2.822a1.04 1.04 0 0 0 1.47 1.47l3.462-3.461c.227-.228.327-.533.3-.83a1.037 1.037 0 0 0-.3-.829v-.002zm6.484 3.6h-5.03a1.039 1.039 0 0 0 0 2.078h5.03a1.04 1.04 0 1 0 0-2.08v.002zm.055 4.265H2.269c-.178 0-.3-.142-.3-.32V2.336c0-.179.122-.367.3-.367h13.437a.984.984 0 1 0 0-1.969H2.27C1.003 0 0 1.069 0 2.336v14.733a2.269 2.269 0 0 0 2.269 2.288h13.437a.984.984 0 1 0 0-1.968h-.001z"/>
        </symbol>
        <symbol id="icon-categorias-back-end" viewBox="0 0 17 20">
            <path d="M9.166 9.524L5.703 6.062a1.039 1.039 0 1 0-1.47 1.47l2.823 2.822-2.822 2.822a1.04 1.04 0 0 0 1.47 1.47l3.462-3.461c.227-.228.327-.533.3-.83a1.037 1.037 0 0 0-.3-.829v-.002zm6.484 3.6h-5.03a1.039 1.039 0 0 0 0 2.078h5.03a1.04 1.04 0 1 0 0-2.08v.002zm.055 4.265H2.269c-.178 0-.3-.142-.3-.32V2.336c0-.179.122-.367.3-.367h13.437a.984.984 0 1 0 0-1.969H2.27C1.003 0 0 1.069 0 2.336v14.733a2.269 2.269 0 0 0 2.269 2.288h13.437a.984.984 0 1 0 0-1.968h-.001z"/>
        </symbol>
        <symbol id="icon-categorias-cloud" viewBox="12 150 1032 810">
            <path d="M397.5 849.84c15.234 0 27.562 12.328 27.562 27.562s-12.328 27.562-27.562 27.562H207.94c-53.906 0-102.89-22.031-138.37-57.516-35.484-35.484-57.516-84.516-57.516-138.42 0-46.125 16.219-88.688 43.219-122.34 21.328-26.625 49.594-47.578 81.891-60.188-.703-2.953-1.312-5.953-1.922-8.906-2.39-12.656-3.656-25.547-3.656-38.531 0-56.578 22.922-107.86 60.047-144.94 37.125-37.125 88.359-60.047 144.98-60.047 33.469 0 65.109 8.062 93.047 22.312a205 205 0 0 1 41.016 27.609c21.28-44.438 53.156-82.781 92.25-111.94 50.156-37.266 112.17-59.344 179.29-59.344 83.109 0 158.34 33.703 212.81 88.172s88.172 129.71 88.172 212.81c0 16.266-1.36 32.53-3.985 48.656a254 254 0 0 1-3.046 15.797c38.062 8.86 72 28.922 98.062 56.484 33.28 35.203 53.766 82.547 53.766 134.34 0 53.906-22.031 102.94-57.516 138.42-35.484 35.484-84.516 57.516-138.42 57.516h-344.53v114.8c0 15.188-12.328 27.562-27.562 27.562s-27.562-12.328-27.562-27.562v-360.1l-104.16 104.16c-10.781 10.78-28.22 10.78-39 0s-10.781-28.172 0-39l151.22-151.22c10.78-10.781 28.219-10.781 39 0l151.22 151.22c10.78 10.78 10.78 28.219 0 39s-28.172 10.78-38.953 0l-104.16-104.16v190.18h344.53c38.719 0 73.922-15.844 99.422-41.391 25.547-25.547 41.39-60.75 41.39-99.422 0-37.406-14.671-71.484-38.53-96.703-24.047-25.406-57.375-41.953-94.453-44.016-2.391-.14-4.829-.61-7.22-1.406-14.39-4.828-22.124-20.391-17.296-34.781a245 245 0 0 0 9.562-38.625c2.063-12.656 3.14-25.97 3.14-39.844 0-67.875-27.561-129.32-72-173.86-44.483-44.484-105.94-72-173.86-72-55.03 0-105.7 17.953-146.58 48.328-41.905 31.125-73.546 75.328-88.968 126.61-1.64 5.625-5.11 10.734-10.22 14.438-12.327 8.906-29.53 6.14-38.437-6.141a151.3 151.3 0 0 0-53.344-45.703c-20.391-10.406-43.547-16.266-68.062-16.266-41.391 0-78.891 16.781-105.98 43.875-27.141 27.141-43.875 64.594-43.875 105.98 0 9.938.89 19.406 2.578 28.406.61 3.281 1.312 6.469 2.156 9.61h223.08c15.188 0 27.562 12.327 27.562 27.561S429.84 572 414.605 572h-240.14c-30.422 7.547-57.047 25.078-76.266 48.938-19.312 24.094-30.938 54.656-30.938 87.891 0 38.72 15.891 73.922 41.391 99.422 25.547 25.547 60.75 41.391 99.422 41.391h189.56zm344.63-505.26c-15.188 0-27.562-12.328-27.562-27.562s12.328-27.562 27.562-27.562c45.375 0 86.438 18.375 116.16 48.141 29.719 29.719 48.141 70.828 48.141 116.16 0 15.234-12.328 27.562-27.562 27.562s-27.562-12.328-27.562-27.562c0-30.141-12.188-57.422-31.969-77.203-19.734-19.734-47.062-31.969-77.203-31.969z"/>
        </symbol>
        <symbol id="icon-categorias-ciberseguranca" viewBox="55 56 1091 1087">
            <path d="M535.45 416.63v-70.5c0-97.734 79.922-177.66 177.66-177.66h148.55c97.734 0 177.66 79.922 177.66 177.66v70.5h6.844c54.609 0 99.28 44.625 99.28 99.281v416.29c0 54.656-44.624 99.281-99.28 99.281h-515.9c-54.61 0-99.281-44.672-99.281-99.281v-416.29c0-54.656 44.672-99.281 99.28-99.281zm28.781-70.5v70.5h87.422v-70.5c0-33.609 27.844-61.453 61.453-61.453h148.55c33.609 0 61.453 27.844 61.453 61.453v70.5h87.422v-70.5c0-81.844-67.031-148.87-148.87-148.87h-148.55c-81.844 0-148.87 67.031-148.87 148.87zm116.2 70.5h213.94v-70.5c0-17.719-14.953-32.672-32.672-32.672h-148.55c-17.719 0-32.672 14.953-32.672 32.672zm365.72 28.781h-515.9c-38.766 0-70.5 31.781-70.5 70.5v416.29c0 38.766 31.734 70.5 70.5 70.5h515.9c38.766 0 70.5-31.781 70.5-70.5v-416.29c0-38.766-31.734-70.5-70.5-70.5m-548.53-389.63c-3.516-1.547-7.64-1.64-11.438 0l-392.9 171.19c-23.906 10.406-38.719 32.953-38.719 59.016v300.24c0 259.18 173.95 485.63 419.44 556.55 12.328 3.563 23.438 3.563 35.766 0 43.734-12.656 83.766-29.531 123.32-51.844 6.89-3.89 9.328-12.609 5.438-19.5-3.891-6.89-12.61-9.328-19.5-5.437-36.516 20.577-76.734 37.546-117.28 49.265-6.61 1.922-13.172 1.922-19.781 0-233.16-67.405-398.63-282.66-398.63-529.03v-300.24c0-14.624 8.015-26.905 21.375-32.718l387.19-168.71 142.82 62.25c7.265 3.187 15.703-.141 18.89-7.407s-.14-15.703-7.406-18.89zm-112.41 154.87c7.266-3.187 15.703.14 18.891 7.406s-.14 15.703-7.406 18.891l-211.69 92.25v257.02c0 112.17 42.375 219.19 117 301.26 5.344 5.86 4.922 14.953-.938 20.297s-14.953 4.922-20.297-.937c-79.266-87.188-124.55-201.52-124.55-320.63v-266.39a14.29 14.29 0 0 1 8.672-13.125zm402.98 309.37c-31.781 0-60.609 12.891-81.422 33.75-49.922 49.922-43.453 132.19 12.938 174 6.656 4.922 9.984 11.625 9.984 19.922v121.87c0 16.125 6.563 30.75 17.156 41.344 37.031 37.031 99.844 10.219 99.844-41.344v-121.87c0-8.297 3.329-15 9.985-19.922 14.438-10.688 26.25-24.656 34.359-40.781 38.438-76.219-16.922-166.97-102.84-166.97zm61.125 54.094c-33.75-33.75-88.453-33.75-122.21 0-37.406 37.406-32.719 99.188 9.703 130.64 13.922 10.312 21.656 25.688 21.656 42.938v121.87c0 26.062 31.828 39.891 50.72 21 5.39-5.39 8.765-12.844 8.765-21l-.047-121.87c0-17.297 7.734-32.625 21.656-42.938 42.469-31.453 47.156-93.234 9.75-130.64z"/>
        </symbol>
        <symbol id="icon-categorias-inteligencia-artificial" viewBox="0 0 22 22">
            <path d="M17.104.37H5.155A4.53 4.53 0 0 0 .63 4.896v11.949a4.53 4.53 0 0 0 4.525 4.525h11.95a4.53 4.53 0 0 0 4.525-4.525V4.895A4.53 4.53 0 0 0 17.104.37Zm2.626 16.475a2.628 2.628 0 0 1-2.626 2.625H5.155a2.628 2.628 0 0 1-2.625-2.625v-5.13h.67a2.352 2.352 0 0 0 3.144 1.302l1.173 1.173a2.332 2.332 0 0 0 .104 2.112 2.356 2.356 0 0 0 2.047 1.19c.401 0 .798-.103 1.156-.307.546-.31.938-.813 1.105-1.418a2.351 2.351 0 0 0-1.64-2.889 2.34 2.34 0 0 0-1.577.118L7.54 11.822a2.337 2.337 0 0 0 0-1.904L8.71 8.745a2.406 2.406 0 0 0 .952.202c.956 0 1.84-.589 2.192-1.505h1.682a2.336 2.336 0 0 0 1.568 1.42 2.336 2.336 0 0 0 1.784-.222c.546-.309.939-.813 1.105-1.417a2.351 2.351 0 0 0-1.64-2.89 2.352 2.352 0 0 0-2.816 1.42h-1.683a2.347 2.347 0 0 0-1.566-1.42 2.352 2.352 0 0 0-2.772 3.218L6.344 8.724A2.352 2.352 0 0 0 3.2 10.026h-.67v-5.13a2.628 2.628 0 0 1 2.625-2.625h11.95a2.628 2.628 0 0 1 2.625 2.625v11.949ZM6.263 10.87a.872.872 0 0 1-1.742 0 .872.872 0 0 1 1.742 0Zm2.971 3.515a.866.866 0 0 1 .662-.082.872.872 0 0 1-.463 1.68.867.867 0 0 1-.526-.41.866.866 0 0 1-.082-.661.865.865 0 0 1 .41-.527Zm-.41-8.019a.873.873 0 0 1 1.68.464.873.873 0 0 1-1.68-.464Zm6.066 0a.873.873 0 0 1 1.68.464.865.865 0 0 1-.41.526.866.866 0 0 1-.661.082.867.867 0 0 1-.526-.41.866.866 0 0 1-.083-.662Z"/>        </symbol>
    </defs>
</svg>
